<svg xmlns="http://www.w3.org/2000/svg" viewBox="0 0 1200 675" fill="none">
  <defs>
    <linearGradient id="bg" x1="0%" y1="0%" x2="100%" y2="100%">
      <stop offset="0%" stop-color="#0a1815"/>
      <stop offset="50%" stop-color="#102c27"/>
      <stop offset="100%" stop-color="#1a4a3f"/>
    </linearGradient>
    <radialGradient id="glow" cx="65%" cy="35%" r="45%">
      <stop offset="0%" stop-color="#3d8b7a" stop-opacity="0.55"/>
      <stop offset="100%" stop-color="#3d8b7a" stop-opacity="0"/>
    </radialGradient>
  </defs>
  <rect width="1200" height="675" fill="url(#bg)"/>
  <rect width="1200" height="675" fill="url(#glow)"/>
  <g opacity="0.2" stroke="#3d8b7a" stroke-width="1">
    <line x1="0" y1="168" x2="1200" y2="168"/><line x1="0" y1="337" x2="1200" y2="337"/><line x1="0" y1="506" x2="1200" y2="506"/>
    <line x1="300" y1="0" x2="300" y2="675"/><line x1="600" y1="0" x2="600" y2="675"/><line x1="900" y1="0" x2="900" y2="675"/>
  </g>
  <rect x="120" y="140" width="420" height="395" rx="20" fill="#0d1117" stroke="#3d8b7a" stroke-opacity="0.35"/>
  <rect x="150" y="175" width="180" height="12" rx="6" fill="#3d8b7a" fill-opacity="0.7"/>
  <rect x="150" y="205" width="360" height="8" rx="4" fill="#ffffff" fill-opacity="0.12"/>
  <rect x="150" y="225" width="320" height="8" rx="4" fill="#ffffff" fill-opacity="0.08"/>
  <rect x="150" y="260" width="360" height="100" rx="10" fill="#161b22" stroke="#30363d"/>
  <rect x="170" y="280" width="120" height="8" rx="4" fill="#3d8b7a" fill-opacity="0.6"/>
  <rect x="170" y="300" width="200" height="6" rx="3" fill="#8b949e" fill-opacity="0.4"/>
  <rect x="150" y="380" width="360" height="100" rx="10" fill="#161b22" stroke="#30363d"/>
  <circle cx="600" cy="338" r="70" fill="#3d8b7a" fill-opacity="0.2" stroke="#3d8b7a" stroke-opacity="0.5"/>
  <path d="M560 338 L590 368 L650 308" stroke="#ffffff" stroke-width="6" stroke-linecap="round" stroke-linejoin="round"/>
  <rect x="620" y="180" width="460" height="320" rx="20" fill="#ffffff" fill-opacity="0.06" stroke="#3d8b7a" stroke-opacity="0.25"/>
  <rect x="660" y="220" width="380" height="16" rx="8" fill="#3d8b7a" fill-opacity="0.4"/>
  <rect x="660" y="260" width="300" height="10" rx="5" fill="#ffffff" fill-opacity="0.15"/>
  <rect x="660" y="290" width="340" height="10" rx="5" fill="#ffffff" fill-opacity="0.1"/>
  <rect x="660" y="330" width="280" height="10" rx="5" fill="#ffffff" fill-opacity="0.1"/>
  <rect x="660" y="380" width="120" height="80" rx="10" fill="#3d8b7a" fill-opacity="0.25"/>
  <rect x="800" y="380" width="120" height="80" rx="10" fill="#3d8b7a" fill-opacity="0.15"/>
  <rect x="940" y="380" width="100" height="80" rx="10" fill="#3d8b7a" fill-opacity="0.1"/>
</svg>
